<svg id="Layer_1" data-name="Layer 1" xmlns="http://www.w3.org/2000/svg" viewBox="0 0 512 512"><defs><style>.cls-1{fill:#1d1d1b;}</style></defs><title>Artboard 1</title><path class="cls-1" d="M18.88,196l89.2,71.36s5.59,4.84,12.7,2.49c0,0,24.79,16.22,28.9,32,2.16,8.29,2.23,9.48,2.23,9.48s0,13.45.91,17.49a23.44,23.44,0,0,0,8.08,13.59,4.16,4.16,0,0,0,3.28-5.16s-8.75-19.79-5.3-38.4c0,0-9.62-14.64-13.8-18.08s-17.56-15.68-20.07-16.1c0,0,3.63-5.67-.1-10.38l-89-71.69s-5.71-5-13.68.1C15.42,187.09,18.88,196,18.88,196Z"/><path class="cls-1" d="M165.79,296.05s-11.43,26.48,6.13,46A54.28,54.28,0,0,0,190.11,356L431.8,420.73s45,6.48,51.92-39.1Z"/><path class="cls-1" d="M402,320.1a12.47,12.47,0,1,1,12.47-12.47A12.49,12.49,0,0,1,402,320.1Zm0-18.26a5.78,5.78,0,1,0,5.78,5.78A5.79,5.79,0,0,0,402,301.84Z"/><path class="cls-1" d="M376.81,165.45A12.47,12.47,0,1,1,389.29,153,12.49,12.49,0,0,1,376.81,165.45Zm0-18.26A5.78,5.78,0,1,0,382.6,153,5.79,5.79,0,0,0,376.81,147.19Z"/><path class="cls-1" d="M243,277.52A12.47,12.47,0,1,1,255.48,265,12.49,12.49,0,0,1,243,277.52Zm0-18.26a5.78,5.78,0,1,0,5.78,5.78A5.79,5.79,0,0,0,243,259.26Z"/><path class="cls-1" d="M237.43,148.73a12.47,12.47,0,1,1,12.47-12.47A12.49,12.49,0,0,1,237.43,148.73Zm0-18.26a5.78,5.78,0,1,0,5.78,5.78A5.79,5.79,0,0,0,237.43,130.47Z"/><path class="cls-1" d="M221.27,178.56l32.89,4.18s7.18.28,7.81-5.51-4.95-7-4.95-7l-42.79-5.58s-7.67-1-8.85,8.78l-8.43,63.77s-.77,8.36,5.78,9.2c0,0,8.4,3.17,10.63-7.74l3.58-27.61,26.76,3.63s6.87,1.49,8.18-4.47-4.76-7.27-4.76-7.27l-28.43-3.89Z"/><path class="cls-1" d="M310.47,148c-20.63-9.34-36,12.13-36,12.13-2,2.23-13.52,23.69,1.39,37.63s27.74,10.73,27.74,10.73c27.46-6.55,27.46-33,27.46-33S331.1,157.37,310.47,148Zm-.84,41c-14.64,16.45-27-1.67-25.79-.28,0,0-6.41-11.57,7.53-24s22.72-1.25,22.72-1.25S324.27,172.56,309.63,189Z"/><path class="cls-1" d="M317.94,230.89c-20-10.67-36.68,9.74-36.68,9.74-2.09,2.1-15,22.76-1.08,37.64s27,12.53,27,12.53c27.83-4.73,29.57-31.16,29.57-31.16S337.91,241.57,317.94,230.89Zm-3.52,40.83c-15.68,15.45-26.87-3.44-25.71-2,0,0-5.64-12,9.08-23.43s22.75.24,22.75.24S330.1,256.28,314.42,271.73Z"/><path class="cls-1" d="M404.48,264.2l-12.13-67.67s-1.25-8.92-9.06-7-5.3,9.27-5.3,9.27l4.08,23.35a23.09,23.09,0,0,0-20.91-5.44c-12.54,3-15.68,9.2-18,13.8s-2.72,16.41-1.53,19.9c0,0,.56,7.77,6.72,16.62s25.3,21.81,41.33-3.41c0,0,1.81,10,8.85,8.71S404.48,264.2,404.48,264.2Zm-38,.14s-3.45-.73-7.11-7.42c0,0-10.56-24.36,7.42-30,0,0,16.62-3.24,19.13,20S366.5,264.34,366.5,264.34Z"/><path class="cls-1" d="M433.82,188.73l.56-51.85s-2.09-8.64,8.22-9.48c0,0,6.69.42,5.85,11l-2.09,38.89,28.85-31.92s5-6.27,10.45.7c0,0,2.79,2.65.14,7.11L439,204.06s-7.7,8.54-19.27,4.39c0,0-9.55-3-11.92-6.13s-1.29-8.78,3.21-9.27c0,0,1.08-.28,3.73.56s5.16,4.63,10.84,2.65c1.25-.44,1.91-1.39,2.8-2C430.71,192.52,432,190.39,433.82,188.73Z"/></svg>